# xmcd
#
# Track frame offsets: 
#        150
#        24426
#        49140
#        78262
#        94546
#        117669
#        154166
#        182746
#        206295
#        227500
#        248689
#        277362
#        306012
#        322620
#
# Disc length: 4512 seconds
#
# Revision: 1
# Processed by: cddbd v1.5.2PL0 Copyright (c) Steve Scherf et al.
# Submitted via: ExactAudioCopy v0.95a3
#
DISCID=ad119e0e
DTITLE=Various Artist - Beginners Guide To Latin Jazz  [CD3]
DYEAR=2008
DGENRE=Jazz
TTITLE0=Bobby Matos - So What~Impressions
TTITLE1=Snowboy and The Latin Section - Blues Para Ti
TTITLE2=Poncho Snachez - Ven Moreno
TTITLE3=Pucho and The Latin Soul Brothers - Sex Machine
TTITLE4=Cal Tjader - Shoshana
TTITLE5=Eddie Palmieri - Palmas
TTITLE6=Cachao - A Gozar Con Mi Combo
TTITLE7=Charlie Sepulveda - Mr BB
TTITLE8=Paquito D'Rivera - Guataca City
TTITLE9=Tania Maria - Dear Dee Vee
TTITLE10=Hilton Ruiz Featuring Tito Puente - Michael's Mambo
TTITLE11=Nuyorican Soul - Maw Latin Blues
TTITLE12=Carmen McCrae and Cal Tjader - Don't You Worry 'Bout A Thing
TTITLE13=Tito Puente - El Rey Del Timbal
EXTD=
EXTT0=
EXTT1=
EXTT2=
EXTT3=
EXTT4=
EXTT5=
EXTT6=
EXTT7=
EXTT8=
EXTT9=
EXTT10=
EXTT11=
EXTT12=
EXTT13=
PLAYORDER=
